# xmcd
#
# Track frame offsets: 
#        150
#        14243
#        28376
#        41487
#        52762
#        66772
#        78961
#        90855
#        103640
#        117012
#        129622
#        142578
#        158111
#        171130
#        180932
#        194749
#        207713
#        220372
#        233674
#        247175
#        261024
#        273310
#        285725
#        298437
#        311661
#
# Disc length: 4310 seconds
#
# Revision: 0
# Processed by: cddbd v1.5.2PL0 Copyright (c) Steve Scherf et al.
# Submitted via: ExactAudioCopy v0.99pb5
#
DISCID=7310d419
DTITLE=Various Artist - Every Shade Of Blues
DYEAR=2008
DGENRE=Blues
TTITLE0=B.B.King - You Upset Me Baby
TTITLE1=Willie Dixon and The All Star - Walking The Blues
TTITLE2=Muddy Waters - I'm Your Hoochie Coochie Man
TTITLE3=Little Richard and His Band - Lucille
TTITLE4=T-Bone Walker and His Guitar - Call It Stormy Monday
TTITLE5=Dinah Washington - New Blowtop Blues
TTITLE6=Sonny Boy Williamson - Don't Start Me Talking
TTITLE7=Arthur 'Bigboy' Crudup - So Glad You're Mine
TTITLE8=Count Basie and His Orchestra - Sent For You Yesterday And You C
TTITLE8=ame Here Today
TTITLE9=James Brown and The Famous Flames - Please, Please, Please
TTITLE10=Jimmy Rogers - Walking By Myself
TTITLE11=Joe Turner - Chains Of Love
TTITLE12=Lightnin' Hopkins - I'm Wild About You Baby
TTITLE13=Fats Domino - Every Night About This Time
TTITLE14=John Lee Hooker - Crawlin' King Snake
TTITLE15=Wynonie Harris - Confessin' The Blues
TTITLE16=Little Walther and His Night Cats - Juke
TTITLE17=Faye Adams - Shake A Hand
TTITLE18=Lowell Fulson - Do Me Right
TTITLE19=Donnie Elbert - What Can I Do
TTITLE20=Brownie McGhee - My Fault
TTITLE21=Big Maybelle - Gabbin' Blues
TTITLE22=Roy Brown and His Mighty-Mighty Men - Please Don't Go
TTITLE23=Robert Johnson - Ramblin' On My Mind
TTITLE24=Chuck Willis - C.C.Rider
EXTD=
EXTT0=
EXTT1=
EXTT2=
EXTT3=
EXTT4=
EXTT5=
EXTT6=
EXTT7=
EXTT8=
EXTT9=
EXTT10=
EXTT11=
EXTT12=
EXTT13=
EXTT14=
EXTT15=
EXTT16=
EXTT17=
EXTT18=
EXTT19=
EXTT20=
EXTT21=
EXTT22=
EXTT23=
EXTT24=
PLAYORDER=
